<svg width="66" height="109" viewBox="0 0 66 109" fill="none" xmlns="http://www.w3.org/2000/svg">
<path d="M18.8636 78H1.81818L21.0227 19.8182H42.6136L61.8182 78H44.7727L32.0455 35.8409H31.5909L18.8636 78ZM15.6818 55.0455H47.7273V66.8636H15.6818V55.0455Z" fill="white"/>
<path d="M9.375 108.477C7.73438 108.477 6.32812 108.243 5.15625 107.774C3.99148 107.312 3.08594 106.673 2.43963 105.857C1.80043 105.047 1.44176 104.116 1.36364 103.065H7.03125C7.08807 103.413 7.23011 103.694 7.45739 103.907C7.68466 104.12 7.97585 104.273 8.33097 104.365C8.69318 104.464 9.09801 104.514 9.54545 104.514C10.3054 104.514 10.9339 104.33 11.4311 103.96C11.9354 103.591 12.1875 102.923 12.1875 101.957V99.1875H12.017C11.804 99.7415 11.4773 100.214 11.0369 100.604C10.5966 100.988 10.0675 101.283 9.44957 101.489C8.83168 101.687 8.15341 101.787 7.41477 101.787C6.25 101.787 5.17756 101.517 4.19744 100.977C3.22443 100.437 2.44318 99.5817 1.85369 98.4098C1.27131 97.2379 0.980114 95.7074 0.980114 93.8182C0.980114 91.8437 1.28551 90.2386 1.89631 89.0028C2.5142 87.767 3.30966 86.8615 4.28267 86.2862C5.26278 85.7109 6.29261 85.4233 7.37216 85.4233C8.18182 85.4233 8.89205 85.5653 9.50284 85.8494C10.1136 86.1264 10.625 86.4993 11.0369 86.968C11.4489 87.4297 11.7614 87.9375 11.9744 88.4915H12.1023V85.6364H17.983V101.957C17.983 103.342 17.6243 104.518 16.907 105.484C16.1967 106.457 15.1953 107.199 13.9027 107.71C12.6101 108.222 11.1009 108.477 9.375 108.477ZM9.58807 97.6108C10.1278 97.6108 10.5895 97.4616 10.973 97.1634C11.3636 96.858 11.6619 96.4247 11.8679 95.8636C12.081 95.2955 12.1875 94.6136 12.1875 93.8182C12.1875 93.0085 12.081 92.3161 11.8679 91.7408C11.6619 91.1584 11.3636 90.7145 10.973 90.4091C10.5895 90.0966 10.1278 89.9403 9.58807 89.9403C9.0483 89.9403 8.58665 90.0966 8.20312 90.4091C7.8267 90.7145 7.53551 91.1584 7.32955 91.7408C7.13068 92.3161 7.03125 93.0085 7.03125 93.8182C7.03125 94.6278 7.13068 95.3168 7.32955 95.8849C7.53551 96.446 7.8267 96.8757 8.20312 97.174C8.58665 97.4652 9.0483 97.6108 9.58807 97.6108ZM24.5534 108.136C23.8787 108.136 23.236 108.083 22.6252 107.977C22.0144 107.877 21.4782 107.739 21.0165 107.561L22.2949 103.385C22.7779 103.555 23.2182 103.665 23.6159 103.715C24.0208 103.765 24.3652 103.737 24.6493 103.63C24.9405 103.523 25.15 103.321 25.2779 103.023L25.4057 102.724L19.6529 85.6364H25.7892L28.4313 96.9716H28.6017L31.2864 85.6364H37.4654L31.4995 103.364C31.2012 104.266 30.7679 105.075 30.1998 105.793C29.6387 106.517 28.9 107.089 27.9838 107.508C27.0676 107.927 25.9242 108.136 24.5534 108.136ZM39.138 102V85.6364H44.7203V88.7472H44.8908C45.2317 87.7244 45.8141 86.9148 46.638 86.3182C47.4618 85.7216 48.4419 85.4233 49.5783 85.4233C50.7289 85.4233 51.7196 85.7287 52.5506 86.3395C53.3816 86.9432 53.8823 87.7457 54.0527 88.7472H54.2232C54.5002 87.7457 55.0897 86.9432 55.9917 86.3395C56.8936 85.7287 57.9519 85.4233 59.1664 85.4233C60.736 85.4233 62.0073 85.9276 62.9803 86.9361C63.9604 87.9446 64.4505 89.2869 64.4505 90.9631V102H58.5698V92.4545C58.5698 91.7372 58.3887 91.1761 58.0265 90.7713C57.6642 90.3594 57.1777 90.1534 56.5669 90.1534C55.9632 90.1534 55.4838 90.3594 55.1287 90.7713C54.7807 91.1761 54.6067 91.7372 54.6067 92.4545V102H48.9817V92.4545C48.9817 91.7372 48.8006 91.1761 48.4384 90.7713C48.0762 90.3594 47.5897 90.1534 46.9789 90.1534C46.574 90.1534 46.226 90.2457 45.9348 90.4304C45.6436 90.6151 45.4164 90.8814 45.253 91.2294C45.0968 91.5703 45.0186 91.9787 45.0186 92.4545V102H39.138Z" fill="#FF2626"/>
</svg>
